<?xml version="1.0" encoding="UTF-8"?>
<svg width="111px" height="25px" viewBox="0 0 111 25" version="1.1" xmlns="http://www.w3.org/2000/svg" xmlns:xlink="http://www.w3.org/1999/xlink">
    <!-- Generator: Sketch 47.1 (45422) - http://www.bohemiancoding.com/sketch -->
    <title>LOGO</title>
    <desc>Created with Sketch.</desc>
    <defs></defs>
    <g id="构力云" stroke="none" stroke-width="1" fill="none" fill-rule="evenodd">
        <g id="在线用户" transform="translate(-40.000000, -28.000000)" fill="#FFFFFF">
            <g id="LOGO" transform="translate(40.000000, 28.000000)">
                <path d="M28.1818175,9.41801619 L26.3809587,10.1858953 C26.4077949,9.93146191 26.4206769,9.70336196 26.4206769,9.48443238 C26.4206769,5.20632132 22.8639114,1.72409125 18.4925169,1.72409125 C14.1217372,1.72409125 10.568199,5.20632132 10.568199,9.48443238 C10.568199,9.78469293 10.5892026,10.1022029 10.6404306,10.4812392 C10.676444,10.7646515 10.568199,11.0508217 10.3460741,11.2412173 C10.125947,11.429858 9.82195961,11.50036 9.53620938,11.4227877 C5.49902693,10.3574344 1.75814768,13.3983497 1.75814768,17.2410127 C1.75814768,20.5679477 4.5252836,23.2772626 7.92416419,23.2772626 L22.777799,23.2772626 L22.777799,22.5288619 L19.5267943,22.6699554 L19.5267943,22.1973167 L22.777799,21.9945746 L22.777799,20.8710376 L19.5267943,21.2086788 L19.5267943,20.7051666 L22.777799,20.2999775 L22.777799,19.1824382 L19.5267943,19.7319655 L19.5267943,19.2345494 L22.777799,18.6266182 L22.777799,17.5122252 L19.5267943,18.2614465 L19.5267943,17.7701264 L22.777799,16.9535538 L22.777799,15.8545975 L19.5274641,16.8253406 L19.5267943,16.1841209 L22.777799,15.1785714 L24.5454545,15.674416 L24.5454545,24.0669592 C24.5473748,24.0901616 24.5483537,24.1136296 24.5483537,24.1373276 C24.5483537,24.6138934 24.1525656,25 23.6656939,25 L7.92416419,25 C3.55353816,25 0,21.5191238 0,17.2410127 C0,12.9635034 3.55353816,9.48443238 7.92416419,9.48443238 C8.21708635,9.48443238 8.50944499,9.50047837 8.80682399,9.5337738 C8.80682399,4.25439309 13.1499918,0 18.4925169,0 C23.8130213,0 28.1452082,4.21842308 28.1818182,9.41801603 Z M26.3636364,25 L26.3636364,24.0714031 L26.3636364,19.7719148 L26.3636364,12.5741834 C26.3636364,12.4240628 26.4505427,12.2961479 26.5883238,12.2435247 L30.4357705,10.7619795 C30.6442551,10.6817146 30.8570453,10.7031109 31.0461544,10.8235081 L34.7057384,13.1528072 C34.9662308,13.3187727 35.1128498,13.5880184 35.1129631,13.9015601 L35.1137563,18.1513518 L37.043145,17.7707299 C37.2213766,17.7354551 37.3864647,17.7667977 37.540562,17.8648734 L39.6725433,19.2218578 C39.8811411,19.3545145 39.9983004,19.5702118 39.9984137,19.8210683 L40,24.8233943 C40,24.9205448 39.9222715,25 39.8269805,25 L39.6519214,25 C39.5566304,25 39.4789019,24.9207761 39.4789019,24.8236256 L39.475616,19.9159057 C39.4755027,19.7904196 39.4168097,19.6826288 39.3124542,19.6162426 L37.5938162,18.5249186 C37.5389757,18.4901063 37.4747307,18.4883715 37.4183039,18.5205237 C37.3619904,18.5524446 37.329358,18.6088844 37.329358,18.674808 L37.329358,24.6467885 C37.329358,24.8414365 37.1739011,25 36.983319,25 L33.8134471,25 C33.622865,25 33.4675214,24.8414365 33.4675214,24.6467885 L33.4675214,18.7675636 C33.4675214,18.5967406 33.5834342,18.4533279 33.7478424,18.4208288 L34.5925449,18.2541694 L34.5915251,13.8972808 C34.5914118,13.7717948 34.5327189,13.6638883 34.4283633,13.5976178 L31.0519331,11.4533673 C30.9972059,11.418555 30.9329609,11.4169358 30.8765341,11.4489724 C30.8201073,11.4808932 30.7875882,11.5373331 30.7875882,11.6033723 L30.7875882,24.6467885 C30.7875882,24.8414365 30.6321312,25 30.4415492,25 L26.3636364,25 Z" id="Combined-Shape"></path>
                <path d="M91,6 L107,6 L107,5 L91,5 L91,6 Z M111,11.321635 L111,10 L90,10 L90,11.321635 L93.467408,11.321635 L91.108549,21 L104.273286,21 C105.68464,21 106.813515,19.8920773 106.813515,18.5512662 L106.813515,14.7034361 L105.442552,14.7034361 L105.442552,18.5512662 C105.442552,19.1732269 104.918506,19.678365 104.273286,19.678365 L92.7216,19.678365 L94.8584364,11.321635 L111,11.321635 Z M85.4346971,6.70112622 L77.3727302,6.70112622 C77.4540473,5.85339287 77.5356275,4.98595074 77.5964179,4.05912633 L76.2121859,4 C76.1508692,4.94653319 76.0698153,5.83368409 75.9882351,6.70112622 L71.1834239,6.70112622 L71.1834239,8.04157898 L75.8456013,8.04157898 C75.1940123,13.5226665 73.8503073,17.6625334 71,21.1717195 L72.0994907,22 C75.1737488,18.2540527 76.5379805,13.8574598 77.2300964,8.04157898 L85.4346971,8.04157898 C86.0862862,8.04157898 86.615768,8.55426312 86.615768,9.18519993 L86.615768,19.4370912 C86.615768,20.068028 86.0862862,20.5804562 85.4346971,20.5804562 L81.7499032,20.5804562 L81.7499032,21.9211649 L85.4346971,21.9211649 C86.8397189,21.9211649 88,20.7972527 88,19.4370912 L88,9.18519993 C88,7.82478244 86.8397189,6.70112622 85.4346971,6.70112622 L85.4346971,6.70112622 Z M61.5272593,8 L59,18 L63.9541852,18 C65.0772963,18 66,17.0570321 66,15.8977707 L66,13.0885069 L64.6362963,13.0885069 L64.6362963,15.8977707 C64.6362963,16.3301025 64.3352963,16.66398 63.9541852,16.66398 L60.7450741,16.66398 L62.851037,8.31449268 L61.5272593,8 Z M65.6316822,5.77824649 L59.9431143,5.77824649 L60.4494335,4.43430054 L59.133527,4 L58,7.12193593 L65.6316822,7.12193593 C66.1782976,7.12193593 66.6236492,7.61575077 66.6236492,8.26784289 L66.6236492,19.5104036 C66.6236492,20.1427431 66.1782976,20.6568236 65.6316822,20.6568236 L63.101133,20.6568236 L63.101133,22 L65.6316822,22 C66.927179,22 68,20.8738456 68,19.5104036 L68,8.26784289 C68,6.90440087 66.927179,5.77824649 65.6316822,5.77824649 L65.6316822,5.77824649 Z M50.8173542,9.81126371 C50.8173542,14.2631953 50.4347533,18.3988934 50,21.7824128 L51.1826458,22 C51.6347083,18.6164806 52,14.4414781 52,9.81126371 L52,9 L50.8173542,9 L50.8173542,9.81126371 Z M56,18 L57,18 L57,9 L56,9 L56,18 Z M55.1696071,4 L53.7748247,4 L53.7748247,6.50107955 L48,6.50107955 L48,7.84034091 L53.7748247,7.84034091 L53.7748247,22 L55.1696071,22 L55.1696071,7.84034091 L58,7.84034091 L58,6.50107955 L55.1696071,6.50107955 L55.1696071,4 Z" id="Page-1"></path>
            </g>
        </g>
    </g>
</svg>